<?xml version="1.0" encoding="UTF-8" standalone="no"?>
<!DOCTYPE svg PUBLIC "-//W3C//DTD SVG 1.1//EN" "http://www.w3.org/Graphics/SVG/1.1/DTD/svg11.dtd">
<svg xmlns="http://www.w3.org/2000/svg" version="1.1" viewBox="0.00 0.00 512.00 512.00">
<path fill="#26b99a" d="
  M 144.93 78.84
  Q 174.40 78.56 204.00 78.81
  C 208.32 78.85 211.31 79.12 214.25 82.45
  C 218.42 87.17 216.38 95.40 210.38 97.68
  Q 208.29 98.47 203.38 98.48
  Q 164.73 98.52 126.07 98.50
  C 118.19 98.50 113.00 99.61 109.51 93.34
  Q 108.23 91.04 108.23 86.89
  Q 108.25 49.20 108.27 11.51
  Q 108.27 5.84 111.73 2.70
  C 116.42 -1.56 124.15 -0.26 126.84 5.66
  Q 127.98 8.14 127.98 13.64
  Q 128.02 39.76 127.99 65.70
  A 0.39 0.39 0.0 0 0 128.63 66.00
  C 200.21 7.90 299.69 -1.69 380.45 42.25
  C 458.55 84.74 504.20 171.21 495.99 259.97
  Q 489.23 333.00 441.26 389.02
  C 432.34 399.44 417.67 387.34 425.95 376.72
  C 430.67 370.66 435.97 364.41 440.02 358.50
  C 531.86 224.37 444.32 42.54 280.99 34.77
  C 231.73 32.43 183.80 48.49 144.77 78.38
  A 0.26 0.26 0.0 0 0 144.93 78.84
  Z"
/>
<path fill="#a4e869" d="
  M 366.69 433.27
  Q 335.54 433.21 304.38 433.25
  C 298.69 433.25 293.84 432.72 291.56 427.42
  Q 289.66 422.99 291.81 418.79
  C 294.10 414.34 298.25 413.54 303.32 413.53
  Q 345.66 413.46 388.00 413.52
  C 397.13 413.54 398.74 420.04 398.75 428.08
  Q 398.76 464.80 398.74 501.50
  C 398.74 515.19 379.13 515.36 379.05 500.92
  Q 378.91 475.26 379.06 449.70
  A 0.32 0.31 71.4 0 0 378.55 449.44
  C 284.06 522.50 149.37 510.62 70.24 420.36
  C 33.41 378.36 13.32 321.93 15.20 265.98
  Q 17.94 184.56 70.93 122.66
  C 79.27 112.92 94.29 124.23 86.34 134.61
  C 81.19 141.34 75.43 148.41 71.05 154.87
  C 44.61 193.87 31.78 240.19 35.29 287.47
  C 43.51 398.01 137.80 482.58 248.74 477.20
  Q 314.46 474.02 366.82 433.66
  Q 367.33 433.27 366.69 433.27
  Z"
/>
</svg>
