<svg width="80" height="58" viewBox="0 0 80 58" fill="none" xmlns="http://www.w3.org/2000/svg">
<g id="sound_on 1" clip-path="url(#clip0_494_2445)">
<path id="Vector" d="M65.9445 46.4775C67.3767 44.6952 68.4883 42.9638 69.4664 40.9601C71.6903 36.4036 72.5461 31.2816 72.0756 26.2388C71.354 18.503 67.2955 11.3676 61.1032 6.71758C60.3865 6.17966 60.0164 5.10176 59.9875 4.25223C59.927 2.50434 61.1514 0.884389 62.8092 0.371233C64.3356 -0.101338 65.5669 0.40769 66.7479 1.36865C68.0074 2.3929 69.1569 3.43503 70.2114 4.56521C75.7117 10.4624 79.1765 18.0689 79.7646 26.1535C80.2828 33.2772 78.8245 39.9626 75.3897 46.2099C75.1001 46.7368 74.814 47.2665 74.4872 47.768C73.6714 49.0192 72.8281 50.3138 71.8465 51.4426C71.1648 52.2268 70.4866 53.0433 69.7595 53.758C68.8432 54.6587 67.8939 55.5235 66.9117 56.3527C65.5208 57.5269 63.9084 57.8928 62.2671 56.9635C60.3032 55.8505 59.5878 53.3356 60.8907 51.4151C60.9806 51.2826 61.1044 51.1541 61.2621 51.0299C62.9804 49.6782 64.5722 48.1841 65.9445 46.4775Z" fill="#8EE502"/>
<path id="Vector_2" d="M33.9598 57.9194H33.0655C31.6279 57.7969 30.3035 57.317 29.0924 56.4797C26.9122 54.9718 24.7335 53.4626 22.5562 51.9521C21.3599 51.1225 20.1472 50.3245 18.9627 49.4778C18.5348 49.1719 18.1597 48.9087 17.8373 48.6881C15.8232 47.3089 13.8353 45.8884 11.8074 44.5306C11.4889 44.3173 10.7322 43.6687 10.2783 43.6233C9.89166 43.5847 9.54245 43.5648 9.23062 43.5634C8.02179 43.5574 6.03681 43.5565 3.27567 43.5607C1.935 43.5627 0.848156 42.7503 0.335688 41.5383C0.23801 41.3072 0.152713 40.9027 0.15065 40.6427C0.103186 33.1215 0.157528 25.5954 0.154089 18.0735C0.154089 17.492 0.187795 17.0712 0.255207 16.8112C0.532421 15.7457 1.40809 14.8817 2.4743 14.6024C2.73706 14.5337 3.16836 14.499 3.76819 14.4986C5.96985 14.4967 8.17289 14.4965 10.3773 14.4979C10.4123 14.4979 10.4465 14.4876 10.4757 14.4683C16.6046 10.4594 22.7267 6.4408 28.853 2.42773C30.0272 1.65799 31.1883 1.06504 32.5723 0.879316C33.2033 0.794478 33.9075 0.801128 34.6848 0.899265C35.0081 0.93985 35.4662 1.03065 35.7985 1.13658C38.7384 2.07347 40.8908 4.42188 41.3104 7.51732C41.4095 8.24785 41.3771 9.13521 41.3778 9.94415C41.3884 23.305 41.3934 36.6656 41.393 50.026C41.393 50.3621 41.3657 50.8737 41.3111 51.5607C41.301 51.6886 41.2682 51.8204 41.2127 51.9562C41.0387 52.3847 40.9727 52.8669 40.7862 53.2625C40.0578 54.8067 38.9875 55.9775 37.5092 56.8559C36.4535 57.4833 35.2704 57.8378 33.9598 57.9194Z" fill="#8EE502"/>
<path id="Vector_3" d="M56.4725 10.6856C63.1758 15.1369 66.8587 22.7537 66.2046 30.7826C65.6329 37.7962 61.6976 43.9568 55.7674 47.6596C55.634 47.7429 55.4097 47.8206 55.2522 47.8708C54.2369 48.196 53.3223 48.0935 52.5083 47.5633C50.6132 46.3293 50.5017 43.4547 52.4938 42.2371C57.3262 39.2841 60.1478 34.0486 59.98 28.3922C59.8163 22.8892 56.6926 17.9688 51.9188 15.2868C51.8225 15.2327 51.7186 15.1176 51.6071 14.9415C50.4673 13.1393 51.3114 10.8459 53.2546 10.0899C54.4577 9.62215 55.4194 9.98604 56.4725 10.6856Z" fill="#8EE502"/>
</g>
<defs>
<clipPath id="clip0_494_2445">
<rect width="80" height="57.9192" fill="white"/>
</clipPath>
</defs>
</svg>
