<svg width="80" height="60" viewBox="0 0 80 60" fill="none" xmlns="http://www.w3.org/2000/svg">
<g id="sound_off 1" clip-path="url(#clip0_494_2442)">
<path id="Vector" d="M10.6903 44.289C8.49294 44.2905 6.29559 44.2954 4.09823 44.304C3.4684 44.3068 3.00968 44.2741 2.72207 44.2059C1.81168 43.9899 1.11194 43.4639 0.62286 42.6278C0.430097 42.2988 0.190733 41.7105 0.192145 41.3133C0.209562 33.6825 0.220388 26.0518 0.224625 18.421C0.225331 17.8362 0.18226 17.1989 0.336187 16.6525C0.757017 15.1568 2.02868 14.2707 3.56584 14.2686C5.95666 14.2653 8.3489 14.2636 10.7425 14.2636C10.7776 14.2636 10.8117 14.2535 10.8407 14.2345C17.2576 10.0087 23.6758 5.77123 30.0951 1.52219C32.8396 -0.294668 36.2387 -0.3103 38.9826 1.51935C41.0623 2.90585 42.2379 4.86316 42.5095 7.39127C42.5439 7.71338 42.5611 8.18661 42.5611 8.81094C42.5592 22.6964 42.5587 36.5816 42.5597 50.4665C42.5597 51.1117 42.5444 51.5847 42.5138 51.8855C41.9312 57.5968 35.7184 60.8973 30.6853 58.0977C30.4425 57.9623 30.0485 57.7043 29.5034 57.3239C23.3241 53.0105 17.1409 48.7032 10.9537 44.402C10.8619 44.3381 10.811 44.289 10.6903 44.289Z" fill="#8EE502"/>
<path id="Vector_2" d="M63.0813 29.6872C63.0868 29.669 63.0874 29.6497 63.0829 29.6314C63.0784 29.6131 63.0691 29.5965 63.0559 29.5835C61.0967 27.6229 59.1467 25.6563 57.2059 23.6839C56.4829 22.9499 56.293 21.6617 56.7498 20.711C56.8755 20.449 57.1351 20.1098 57.5286 19.6935C57.9843 19.2112 58.3844 18.8164 58.729 18.509C59.5424 17.7835 60.8317 17.7103 61.7567 18.2319C61.9812 18.3583 62.291 18.6205 62.6859 19.0184C64.3664 20.7114 66.0481 22.4032 67.7309 24.0938C67.7474 24.1104 67.7667 24.1223 67.7888 24.1294C68.0875 24.2253 68.2993 24.4015 68.5782 24.1223C70.4037 22.2943 72.2261 20.463 74.0455 18.6284C74.8412 17.8254 76.1765 17.684 77.1509 18.1942C77.7376 18.5019 78.335 19.1897 78.8441 19.7112C79.1933 20.0684 79.4303 20.3659 79.5551 20.6037C80.0133 21.4769 79.9477 22.6223 79.3531 23.4316C79.2727 23.541 79.0364 23.7926 78.6442 24.1862C76.8569 25.9792 75.0745 27.774 73.297 29.5707C73.2832 29.5844 73.275 29.603 73.2742 29.6226C73.2734 29.6423 73.2801 29.6615 73.2928 29.6766C73.5328 29.9636 73.8584 30.2614 74.0645 30.4688C75.7568 32.1704 77.4486 33.8726 79.1399 35.5755C80.1842 36.6271 80.031 38.3715 79.0142 39.3847C78.4501 39.9468 77.7694 40.7355 77.1614 41.0708C76.0896 41.6634 74.7699 41.3885 73.9007 40.5109C72.0588 38.6517 70.2156 36.7936 68.3713 34.9367C68.228 34.7925 68.1235 34.7797 67.9717 34.931C66.1373 36.7685 64.3061 38.6091 62.4783 40.4527C61.5759 41.3622 60.3784 41.694 59.2225 41.0915C58.9999 40.9759 58.7294 40.7655 58.4112 40.4605C57.7809 39.8561 57.3584 39.4245 57.1438 39.1659C56.4031 38.2734 56.2824 37.0058 56.8882 36.0118C57.0012 35.8266 57.2577 35.5305 57.6578 35.1236C59.4292 33.324 61.217 31.541 63.0213 29.7746C63.0533 29.7438 63.0733 29.7147 63.0813 29.6872Z" fill="#8EE502"/>
</g>
<defs>
<clipPath id="clip0_494_2442">
<rect width="80" height="59.2593" fill="white"/>
</clipPath>
</defs>
</svg>
